<svg width="139" height="56" viewBox="0 0 139 56" fill="none" xmlns="http://www.w3.org/2000/svg">
<path d="M118 16.0044C107.323 16.063 98.5068 24.5991 98.1721 35.2181C98.0704 38.4168 98.737 41.4505 99.9927 44.1565C96.8415 47.2487 94.0329 46.2472 92.7023 44.5347C91.535 43.0299 90.9594 41.1522 90.9594 39.2505V14.7632C90.9594 11.9533 90.2338 9.17541 88.7747 6.76769C86.7587 3.43845 82.9274 0 75.696 0C67.8059 0 64.0924 4.21882 62.3548 7.91295C61.3375 10.0756 60.8448 12.4461 60.8448 14.8325V18.468L55.4473 18.5026L55.4821 25.6512H60.8448V40.22C60.8448 41.2454 60.8448 45.9649 55.8945 45.9649C50.9441 45.9649 50.9441 40.0149 50.9441 40.0149V28.1148C50.9441 23.3766 47.8491 15.8046 35.6807 15.8046C30.3555 15.8046 26.9285 18.0445 24.7545 20.5614C22.4547 23.2275 21.2418 26.6579 21.2418 30.171V41.6582C21.2418 43.9141 19.3865 46.993 15.8792 46.993C14.3879 46.993 13.3089 46.2153 12.5593 45.3204C11.6195 44.1991 11.1349 42.7688 11.1349 41.3066V18.6757C11.1349 18.6757 1.44302 20.929 0.618408 21.1341V40.6275C0.618408 43.0884 1.85533 55.697 16.7065 55.697C31.5576 55.697 31.1453 40.8352 31.1453 40.8352V30.3707C31.1453 28.525 32.3822 24.8309 35.6833 24.8309C36.9899 24.8309 37.702 25.0519 38.2 25.3875C39.6244 26.3517 40.4276 27.995 40.4276 29.7075V39.4795C40.4276 42.1935 41.0032 44.8862 42.1892 47.3312C47.3993 58.0727 59.4017 55.4013 59.4017 55.4013C71.1579 51.9123 70.9517 41.2427 70.9517 41.2427V25.6485H76.1431V18.4813H71.364V14.3637C71.364 14.3637 70.9517 9.13013 75.5915 9.13013C80.2313 9.13013 80.4375 13.9509 80.4375 13.9509C80.4375 13.9509 80.2313 36.5205 80.4375 40.8299C80.6436 45.1393 84.3571 55.3987 94.0517 55.3987C102.397 55.3987 105.238 52.3597 105.867 51.5128C109.371 54.2268 113.81 55.8088 118.624 55.6863C128.86 55.428 137.708 46.6974 138.045 36.5178C138.42 25.2144 129.288 15.9404 117.995 16.0017L118 16.0044ZM118.113 45.7732C112.603 45.7732 108.137 41.3306 108.137 35.8493C108.137 30.3681 112.603 25.9255 118.113 25.9255C123.623 25.9255 128.089 30.3681 128.089 35.8493C128.089 41.3306 123.623 45.7732 118.113 45.7732Z" fill="#FFFBFB"/>
<path d="M6.05075 16.0522C9.39249 16.0522 12.1015 13.3573 12.1015 10.033C12.1015 6.70859 9.39249 4.01367 6.05075 4.01367C2.70902 4.01367 0 6.70859 0 10.033C0 13.3573 2.70902 16.0522 6.05075 16.0522Z" fill="url(#paint0_linear_124_984)"/>
<path d="M123.516 34.7013C124.399 35.2153 124.399 36.4831 123.516 36.9971L119.604 39.2663L115.674 41.5009C114.785 42.007 113.679 41.3704 113.674 40.353L113.655 35.8492L113.674 31.3454C113.679 30.328 114.785 29.6914 115.674 30.1975L119.604 32.4321L123.516 34.7013Z" fill="url(#paint1_linear_124_984)"/>
<defs>
<linearGradient id="paint0_linear_124_984" x1="6.89786" y1="4.16415" x2="6.88259" y2="16.0524" gradientUnits="userSpaceOnUse">
<stop stop-color="#71BF8A"/>
<stop offset="1" stop-color="#2E98D3"/>
</linearGradient>
<linearGradient id="paint1_linear_124_984" x1="119.653" y1="30.1657" x2="119.637" y2="41.6785" gradientUnits="userSpaceOnUse">
<stop stop-color="#71BF8A"/>
<stop offset="1" stop-color="#2E98D3"/>
</linearGradient>
</defs>
</svg>
