<svg width="67" height="51" viewBox="0 0 67 51" fill="none" xmlns="http://www.w3.org/2000/svg">
<path d="M49.3493 20H45.9893C44.9916 16.136 42.9301 12.6293 40.039 9.87839C37.1479 7.12747 33.5432 5.24264 29.6344 4.43807C25.7256 3.6335 21.6695 3.94144 17.927 5.32691C14.1845 6.71238 10.9056 9.11983 8.46299 12.2757C6.02036 15.4315 4.51189 19.2093 4.10901 23.1796C3.70612 27.1499 4.42496 31.1537 6.18385 34.7359C7.94275 38.3181 10.6712 41.3351 14.0591 43.4442C17.447 45.5532 21.3585 46.6696 25.3493 46.6667H49.3493C52.8855 46.6667 56.2769 45.2619 58.7773 42.7614C61.2778 40.2609 62.6826 36.8696 62.6826 33.3333C62.6826 29.7971 61.2778 26.4057 58.7773 23.9052C56.2769 21.4048 52.8855 20 49.3493 20Z" stroke="white" stroke-width="7" stroke-linecap="round" stroke-linejoin="round"/>
</svg>
