<svg width="228" height="93" viewBox="0 0 228 93" fill="none" xmlns="http://www.w3.org/2000/svg">
<path d="M194.557 26.4704C176.953 26.5673 162.416 40.6857 161.864 58.249C161.697 63.5395 162.796 68.557 164.866 73.0326C159.671 78.1469 155.04 76.4906 152.846 73.6581C150.921 71.1692 149.972 68.0636 149.972 64.9183V24.4176C149.972 19.7702 148.776 15.1757 146.37 11.1934C143.046 5.68702 136.729 0 124.806 0C111.797 0 105.675 6.97772 102.81 13.0876C101.132 16.6646 100.32 20.5852 100.32 24.5321V30.5451L91.4207 30.6024L91.4781 42.4258H100.32V66.5218C100.32 68.2178 100.32 76.0237 92.1579 76.0237C83.9958 76.0237 83.9958 66.1826 83.9958 66.1826V46.5005C83.9958 38.6638 78.8928 26.14 58.8297 26.14C50.0497 26.14 44.3993 29.8447 40.8149 34.0076C37.023 38.4171 35.0233 44.0909 35.0233 49.9013V68.9006C35.0233 72.6317 31.9642 77.724 26.1814 77.724C23.7226 77.724 21.9437 76.4377 20.7077 74.9576C19.1582 73.1031 18.3592 70.7375 18.3592 68.3191V30.8887C18.3592 30.8887 2.37939 34.6155 1.01978 34.9547V67.1958C1.01978 71.2661 3.05919 92.12 27.5454 92.12C52.0317 92.12 51.3519 67.5394 51.3519 67.5394V50.2317C51.3519 47.1789 53.3913 41.069 58.8342 41.069C60.9883 41.069 62.1626 41.4346 62.9836 41.9897C65.332 43.5843 66.6563 46.3023 66.6563 49.1348V65.2972C66.6563 69.786 67.6054 74.2396 69.561 78.2835C78.1512 96.0494 97.9406 91.631 97.9406 91.631C117.324 85.8603 116.984 68.2134 116.984 68.2134V42.4214H125.543V30.5672H117.664V23.7568C117.664 23.7568 116.984 15.1008 124.634 15.1008C132.284 15.1008 132.624 23.0741 132.624 23.0741C132.624 23.0741 132.284 60.4031 132.624 67.5306C132.964 74.6581 139.087 91.6266 155.071 91.6266C168.83 91.6266 173.514 86.6004 174.551 85.1995C180.33 89.6884 187.649 92.305 195.585 92.1024C212.461 91.6751 227.051 77.2351 227.607 60.3987C228.225 41.7033 213.168 26.3647 194.548 26.466L194.557 26.4704ZM194.742 75.7065C185.658 75.7065 178.295 68.3587 178.295 59.293C178.295 50.2272 185.658 42.8795 194.742 42.8795C203.827 42.8795 211.19 50.2272 211.19 59.293C211.19 68.3587 203.827 75.7065 194.742 75.7065Z" fill="#FFFBFB"/>
<path d="M9.97637 26.5497C15.4862 26.5497 19.9527 22.0925 19.9527 16.5941C19.9527 11.0958 15.4862 6.63855 9.97637 6.63855C4.46657 6.63855 0 11.0958 0 16.5941C0 22.0925 4.46657 26.5497 9.97637 26.5497Z" fill="url(#paint0_linear_77_259)"/>
<path d="M203.65 57.3944C205.107 58.2446 205.107 60.3414 203.65 61.1916L197.201 64.9448L190.721 68.6407C189.255 69.4777 187.432 68.4248 187.423 66.7421L187.392 59.293L187.423 51.8439C187.432 50.1612 189.255 49.1084 190.721 49.9453L197.201 53.6412L203.65 57.3944Z" fill="url(#paint1_linear_77_259)"/>
<defs>
<linearGradient id="paint0_linear_77_259" x1="0" y1="16.5941" x2="19.9527" y2="16.5941" gradientUnits="userSpaceOnUse">
<stop stop-color="#71BF8A"/>
<stop offset="1" stop-color="#2E98D3"/>
</linearGradient>
<linearGradient id="paint1_linear_77_259" x1="187.392" y1="59.293" x2="204.743" y2="59.293" gradientUnits="userSpaceOnUse">
<stop stop-color="#71BF8A"/>
<stop offset="1" stop-color="#2E98D3"/>
</linearGradient>
</defs>
</svg>
