<svg width="60" height="60" viewBox="0 0 60 60" fill="none" xmlns="http://www.w3.org/2000/svg">
<circle cx="30" cy="30" r="30" fill="#1F1F1F"/>
<path d="M36.3312 40.2218L26.1468 30.0406L36.3281 19.8594L36.3843 19.8031L36.3906 19.7969C36.6656 19.5062 36.8375 19.1219 36.8375 18.6906C36.8375 17.7969 36.1125 17.0687 35.2156 17.0687C34.7843 17.0687 34.4 17.2437 34.1093 17.5156L34.1062 17.5125L34.0968 17.5219C34.0812 17.5375 34.0656 17.55 34.0531 17.5656L22.7531 28.8719C22.4437 29.1656 22.2468 29.5781 22.2468 30.0375C22.2468 30.4937 22.4375 30.9031 22.7406 31.1968L34.05 42.5062C34.3437 42.8156 34.7562 43.0125 35.2156 43.0125C36.1093 43.0125 36.8375 42.2875 36.8375 41.3906C36.8343 40.9281 36.6406 40.5156 36.3312 40.2218Z" fill="white"/>
</svg>
