<svg width="32" height="32" viewBox="0 0 32 32" fill="none" xmlns="http://www.w3.org/2000/svg">
<path d="M27.5871 11.2724V11.1643C27.5236 10.6039 27.3299 10.0661 27.0214 9.59397C26.7128 9.12183 26.2982 8.72841 25.8104 8.44518L17.7921 4.02662C17.5353 3.87934 17.2517 3.78479 16.9579 3.74853C16.6326 3.68034 16.3014 3.64412 15.9691 3.64038C15.6204 3.64158 15.2731 3.68305 14.934 3.76398C14.6801 3.81438 14.4352 3.90293 14.2078 4.02662L6.18954 8.44518C5.6994 8.72554 5.28278 9.11821 4.97392 9.5909C4.66506 10.0636 4.47276 10.6028 4.41284 11.1643V20.8357C4.47636 21.3961 4.67012 21.9339 4.97862 22.406C5.28712 22.8782 5.70181 23.2716 6.18954 23.5548L14.2078 27.9734C14.4676 28.114 14.7499 28.2081 15.0421 28.2515C15.3674 28.3197 15.6986 28.3559 16.0309 28.3596C16.3795 28.3584 16.7269 28.3169 17.066 28.236C17.3199 28.1856 17.5647 28.0971 17.7921 27.9734L25.8104 23.5548C26.3006 23.2745 26.7172 22.8818 27.0261 22.4091C27.3349 21.9364 27.5272 21.3972 27.5871 20.8357V11.2724ZM15.1039 17.6994V26.4902L7.13196 22.1798L11.7668 19.6461L14.146 20.9593V20.0632L11.9677 18.7809L14.007 17.6531L13.4045 17.0815L11.5351 18.1166V15.3666L10.8244 15.0267H10.7162V18.1166L6.20499 20.6349V11.3651L14.2078 15.7528C14.3239 15.8109 14.4286 15.8894 14.5168 15.9846C14.7072 16.1635 14.86 16.3787 14.9661 16.6174C15.0722 16.8562 15.1296 17.1138 15.1348 17.375C15.1432 17.4778 15.1432 17.5812 15.1348 17.684L15.1039 17.6994ZM16 14.455C15.6902 14.4545 15.3843 14.3859 15.1039 14.2542L7.10106 9.92834L15.1039 5.47887V10.5927L12.5702 11.9522C12.8094 12.1046 13.0367 12.2751 13.25 12.4621L15.5828 11.2106V13.2809C15.8504 13.2661 16.1186 13.2661 16.3862 13.2809V11.2261L18.5337 12.4157C18.7623 12.2366 19.0052 12.0764 19.2598 11.9368L16.8961 10.5927V5.50977L24.868 9.89744L16.8961 14.316C16.6109 14.4265 16.3052 14.474 16 14.455ZM25.795 20.6349L21.2683 18.1629V14.8567H21.0983L20.4494 15.2121V18.1166L18.4874 17.0197L17.9621 17.6222L20.0478 18.7655L17.9775 19.9242V20.8048L20.2795 19.5225L24.9144 22.0562L16.8961 26.5211V17.7149C16.8884 17.6069 16.8884 17.4985 16.8961 17.3905C16.9013 17.1292 16.9587 16.8717 17.0648 16.6329C17.1709 16.3941 17.3236 16.1789 17.514 16C17.606 15.9047 17.7099 15.8216 17.823 15.7528L25.795 11.3651V20.6349Z" fill="white"/>
</svg>
