<svg width="32" height="32" viewBox="0 0 32 32" fill="none" xmlns="http://www.w3.org/2000/svg">
<path d="M13.1861 10.396C13.7886 10.3992 14.2796 9.91336 14.2827 9.31088C14.2859 8.7084 13.8001 8.2174 13.1976 8.21422C11.8874 8.20729 10.5713 8.70451 9.57046 9.70535C8.45613 10.8197 7.96678 12.3234 8.10092 13.7759C8.15633 14.3758 8.6876 14.8172 9.28754 14.7618C9.88747 14.7064 10.3289 14.1751 10.2735 13.5752C10.1964 12.741 10.4768 11.8845 11.1132 11.2481C11.6855 10.6759 12.4346 10.392 13.1861 10.396Z" fill="white"/>
<path fill-rule="evenodd" clip-rule="evenodd" d="M22.3775 6.42865C17.9733 2.02452 10.8328 2.02452 6.42871 6.42865C2.02458 10.8328 2.02458 17.9733 6.42871 22.3774C10.5726 26.5213 17.1391 26.7662 21.5693 23.112L27.0122 28.5549C27.4382 28.9809 28.1289 28.9809 28.555 28.5549C28.981 28.1289 28.981 27.4382 28.555 27.0121L23.112 21.5692C26.7662 17.139 26.5214 10.5725 22.3775 6.42865ZM7.97149 7.97143C11.5236 4.41935 17.2826 4.41935 20.8347 7.97143C24.3868 11.5235 24.3868 17.2826 20.8347 20.8346C17.2826 24.3867 11.5236 24.3867 7.97149 20.8346C4.41941 17.2826 4.41941 11.5235 7.97149 7.97143Z" fill="white"/>
</svg>
