<svg width="60" height="60" viewBox="0 0 60 60" fill="none" xmlns="http://www.w3.org/2000/svg">
<rect width="60" height="60" rx="30" fill="white"/>
<path d="M11 45.765C11 48.8922 14.2728 50.9392 17.0816 49.5645C23.8606 46.2467 28.039 44.204 29.6169 43.4364C26.2024 41.1601 24.983 35.9571 24.983 31.2419V14.4948L18.0132 10.6047C14.8703 8.85049 11 11.1226 11 14.722V45.765Z" fill="#0099FF"/>
<path d="M29.5168 32.5367C29.3196 35.2755 31.0061 38.15 34.5762 41.1601C38.1392 39.551 42.7044 37.3596 48.2716 34.5859C51.4337 33.0104 51.4947 28.5384 48.3919 26.8489L40.1857 22.3806C33.3339 25.5287 29.7777 28.914 29.5168 32.5367Z" fill="#EE1B24"/>
</svg>
