<svg width="76" height="76" viewBox="0 0 76 76" fill="none" xmlns="http://www.w3.org/2000/svg">
<g filter="url(#filter0_d_171_1200)">
<path d="M68 33C68 33.491 67.9879 33.9816 67.9638 34.4719C67.9398 34.9624 67.9037 35.4519 67.8556 35.9404C67.8074 36.4291 67.7474 36.9163 67.6754 37.4019C67.6032 37.8876 67.5193 38.3712 67.4236 38.8528C67.3277 39.3342 67.2201 39.8131 67.1009 40.2894C66.9816 40.7656 66.8507 41.2387 66.7083 41.7086C66.5657 42.1784 66.4117 42.6445 66.2463 43.1068C66.0809 43.5689 65.9042 44.0269 65.7164 44.4806C65.5285 44.9341 65.3296 45.3829 65.1196 45.8267C64.9097 46.2706 64.6891 46.709 64.4576 47.142C64.2262 47.575 63.9843 48.002 63.7319 48.423C63.4794 48.8441 63.2169 49.2589 62.9441 49.6671C62.6713 50.0753 62.3886 50.4766 62.0962 50.871C61.8038 51.2653 61.5018 51.6522 61.1902 52.0318C60.8788 52.4114 60.5582 52.783 60.2285 53.1467C59.8988 53.5106 59.5604 53.8661 59.2132 54.2132C58.8661 54.5604 58.5106 54.8988 58.1467 55.2285C57.783 55.5582 57.4114 55.8788 57.0318 56.1902C56.6522 56.5018 56.2653 56.8038 55.871 57.0962C55.4766 57.3886 55.0753 57.6713 54.6671 57.9441C54.2589 58.2169 53.8441 58.4794 53.423 58.7319C53.002 58.9843 52.575 59.2262 52.142 59.4576C51.709 59.6891 51.2706 59.9097 50.8267 60.1196C50.3829 60.3296 49.9341 60.5285 49.4806 60.7164C49.0269 60.9042 48.5689 61.0809 48.1068 61.2463C47.6445 61.4117 47.1784 61.5657 46.7086 61.7083C46.2387 61.8507 45.7656 61.9816 45.2894 62.1009C44.8131 62.2201 44.3342 62.3277 43.8528 62.4236C43.3712 62.5193 42.8876 62.6032 42.4019 62.6754C41.9163 62.7474 41.4291 62.8074 40.9404 62.8556C40.4519 62.9037 39.9624 62.9398 39.4719 62.9638C38.9816 62.9879 38.491 63 38 63C37.509 63 37.0184 62.9879 36.5281 62.9638C36.0376 62.9398 35.5481 62.9037 35.0596 62.8556C34.5709 62.8074 34.0837 62.7474 33.5981 62.6754C33.1124 62.6032 32.6288 62.5193 32.1472 62.4236C31.6658 62.3277 31.1869 62.2201 30.7106 62.1009C30.2344 61.9816 29.7613 61.8507 29.2915 61.7083C28.8216 61.5657 28.3556 61.4117 27.8933 61.2463C27.431 61.0809 26.9731 60.9042 26.5195 60.7164C26.0659 60.5285 25.6172 60.3296 25.1734 60.1196C24.7295 59.9097 24.2911 59.6891 23.8581 59.4576C23.4251 59.2262 22.998 58.9843 22.5769 58.7319C22.1558 58.4794 21.7411 58.2169 21.3329 57.9441C20.9247 57.6713 20.5234 57.3886 20.129 57.0962C19.7347 56.8038 19.3477 56.5018 18.9682 56.1902C18.5887 55.8788 18.217 55.5582 17.8532 55.2285C17.4894 54.8988 17.134 54.5604 16.7868 54.2132C16.4396 53.8661 16.1012 53.5106 15.7715 53.1467C15.4417 52.783 15.1211 52.4114 14.8097 52.0318C14.4982 51.6522 14.1962 51.2653 13.9038 50.871C13.6113 50.4766 13.3287 50.0753 13.0559 49.6671C12.7832 49.2589 12.5206 48.8441 12.2681 48.423C12.0157 48.002 11.7738 47.575 11.5424 47.142C11.3109 46.709 11.0902 46.2706 10.8803 45.8267C10.6704 45.3829 10.4715 44.9341 10.2836 44.4806C10.0957 44.0269 9.91908 43.5689 9.75368 43.1068C9.58827 42.6445 9.43431 42.1784 9.29179 41.7086C9.14927 41.2387 9.01836 40.7656 8.89906 40.2894C8.77977 39.8131 8.67223 39.3342 8.57644 38.8528C8.48066 38.3712 8.39675 37.8876 8.32471 37.4019C8.25266 36.9163 8.19258 36.4291 8.14446 35.9404C8.09633 35.4519 8.06023 34.9624 8.03614 34.4719C8.01205 33.9816 8 33.491 8 33C8 32.509 8.01205 32.0184 8.03614 31.5281C8.06023 31.0376 8.09633 30.5481 8.14446 30.0596C8.19258 29.5709 8.25266 29.0837 8.32471 28.5981C8.39675 28.1124 8.48066 27.6288 8.57644 27.1472C8.67223 26.6658 8.77977 26.1869 8.89906 25.7106C9.01836 25.2344 9.14927 24.7613 9.29179 24.2915C9.43431 23.8216 9.58827 23.3556 9.75368 22.8933C9.91908 22.431 10.0957 21.9731 10.2836 21.5195C10.4715 21.0659 10.6704 20.6172 10.8803 20.1733C11.0902 19.7295 11.3109 19.2911 11.5424 18.8581C11.7738 18.4251 12.0157 17.998 12.2681 17.5769C12.5206 17.1558 12.7832 16.7411 13.0559 16.3329C13.3287 15.9247 13.6113 15.5234 13.9038 15.129C14.1962 14.7347 14.4982 14.3477 14.8097 13.9682C15.1211 13.5887 15.4417 13.217 15.7715 12.8532C16.1012 12.4894 16.4396 12.134 16.7868 11.7868C17.134 11.4396 17.4894 11.1012 17.8532 10.7715C18.217 10.4417 18.5887 10.1211 18.9682 9.80968C19.3477 9.49821 19.7347 9.19624 20.129 8.90376C20.5234 8.61129 20.9247 8.32868 21.3329 8.05592C21.7411 7.78315 22.1558 7.52056 22.5769 7.26814C22.998 7.01573 23.4251 6.7738 23.8581 6.54236C24.2911 6.31091 24.7295 6.09023 25.1734 5.88032C25.6172 5.67041 26.0659 5.47151 26.5195 5.28362C26.9731 5.09573 27.431 4.91908 27.8933 4.75368C28.3556 4.58827 28.8216 4.43431 29.2915 4.29179C29.7613 4.14927 30.2344 4.01836 30.7106 3.89906C31.1869 3.77977 31.6658 3.67223 32.1472 3.57644C32.6288 3.48066 33.1124 3.39674 33.5981 3.3247C34.0837 3.25266 34.5709 3.19258 35.0596 3.14446C35.5481 3.09633 36.0376 3.06023 36.5281 3.03614C37.0184 3.01205 37.509 3 38 3C38.491 3 38.9816 3.01205 39.4719 3.03614C39.9624 3.06023 40.4519 3.09633 40.9404 3.14446C41.4291 3.19258 41.9163 3.25266 42.4019 3.3247C42.8876 3.39674 43.3712 3.48066 43.8528 3.57644C44.3342 3.67223 44.8131 3.77977 45.2894 3.89906C45.7656 4.01836 46.2387 4.14927 46.7086 4.29179C47.1784 4.43431 47.6445 4.58827 48.1068 4.75368C48.5689 4.91908 49.0269 5.09573 49.4806 5.28362C49.9341 5.47151 50.3829 5.67041 50.8267 5.88032C51.2706 6.09023 51.709 6.31091 52.142 6.54236C52.575 6.7738 53.002 7.01573 53.423 7.26814C53.8441 7.52056 54.2589 7.78315 54.6671 8.05592C55.0753 8.32868 55.4766 8.61129 55.871 8.90376C56.2653 9.19624 56.6522 9.49821 57.0318 9.80968C57.4114 10.1211 57.783 10.4417 58.1467 10.7715C58.5106 11.1012 58.8661 11.4396 59.2132 11.7868C59.5604 12.134 59.8988 12.4894 60.2285 12.8532C60.5582 13.217 60.8788 13.5887 61.1902 13.9682C61.5018 14.3477 61.8038 14.7347 62.0962 15.129C62.3886 15.5234 62.6713 15.9247 62.9441 16.3329C63.2169 16.7411 63.4794 17.1558 63.7319 17.5769C63.9843 17.998 64.2262 18.4251 64.4576 18.8581C64.6891 19.2911 64.9097 19.7295 65.1196 20.1733C65.3296 20.6172 65.5285 21.0659 65.7164 21.5195C65.9042 21.9731 66.0809 22.431 66.2463 22.8933C66.4117 23.3556 66.5657 23.8216 66.7083 24.2915C66.8507 24.7613 66.9816 25.2344 67.1009 25.7106C67.2201 26.1869 67.3277 26.6658 67.4236 27.1472C67.5193 27.6288 67.6032 28.1124 67.6754 28.5981C67.7474 29.0837 67.8074 29.5709 67.8556 30.0596C67.9037 30.5481 67.9398 31.0376 67.9638 31.5281C67.9879 32.0184 68 32.509 68 33Z" fill="white"/>
<mask id="mask0_171_1200" style="mask-type:alpha" maskUnits="userSpaceOnUse" x="8" y="3" width="60" height="60">
<path d="M68 33C68 33.491 67.9879 33.9816 67.9638 34.4719C67.9398 34.9624 67.9037 35.4519 67.8556 35.9404C67.8074 36.4291 67.7474 36.9163 67.6754 37.4019C67.6032 37.8876 67.5193 38.3712 67.4236 38.8528C67.3277 39.3342 67.2201 39.8131 67.1009 40.2894C66.9816 40.7656 66.8507 41.2387 66.7083 41.7086C66.5657 42.1784 66.4117 42.6445 66.2463 43.1068C66.0809 43.5689 65.9042 44.0269 65.7164 44.4806C65.5285 44.9341 65.3296 45.3829 65.1196 45.8267C64.9097 46.2706 64.6891 46.709 64.4576 47.142C64.2262 47.575 63.9843 48.002 63.7319 48.423C63.4794 48.8441 63.2169 49.2589 62.9441 49.6671C62.6713 50.0753 62.3886 50.4766 62.0962 50.871C61.8038 51.2653 61.5018 51.6522 61.1902 52.0318C60.8788 52.4114 60.5582 52.783 60.2285 53.1467C59.8988 53.5106 59.5604 53.8661 59.2132 54.2132C58.8661 54.5604 58.5106 54.8988 58.1467 55.2285C57.783 55.5582 57.4114 55.8788 57.0318 56.1902C56.6522 56.5018 56.2653 56.8038 55.871 57.0962C55.4766 57.3886 55.0753 57.6713 54.6671 57.9441C54.2589 58.2169 53.8441 58.4794 53.423 58.7319C53.002 58.9843 52.575 59.2262 52.142 59.4576C51.709 59.6891 51.2706 59.9097 50.8267 60.1196C50.3829 60.3296 49.9341 60.5285 49.4806 60.7164C49.0269 60.9042 48.5689 61.0809 48.1068 61.2463C47.6445 61.4117 47.1784 61.5657 46.7086 61.7083C46.2387 61.8507 45.7656 61.9816 45.2894 62.1009C44.8131 62.2201 44.3342 62.3277 43.8528 62.4236C43.3712 62.5193 42.8876 62.6032 42.4019 62.6754C41.9163 62.7474 41.4291 62.8074 40.9404 62.8556C40.4519 62.9037 39.9624 62.9398 39.4719 62.9638C38.9816 62.9879 38.491 63 38 63C37.509 63 37.0184 62.9879 36.5281 62.9638C36.0376 62.9398 35.5481 62.9037 35.0596 62.8556C34.5709 62.8074 34.0837 62.7474 33.5981 62.6754C33.1124 62.6032 32.6288 62.5193 32.1472 62.4236C31.6658 62.3277 31.1869 62.2201 30.7106 62.1009C30.2344 61.9816 29.7613 61.8507 29.2915 61.7083C28.8216 61.5657 28.3556 61.4117 27.8933 61.2463C27.431 61.0809 26.9731 60.9042 26.5195 60.7164C26.0659 60.5285 25.6172 60.3296 25.1734 60.1196C24.7295 59.9097 24.2911 59.6891 23.8581 59.4576C23.4251 59.2262 22.998 58.9843 22.5769 58.7319C22.1558 58.4794 21.7411 58.2169 21.3329 57.9441C20.9247 57.6713 20.5234 57.3886 20.129 57.0962C19.7347 56.8038 19.3477 56.5018 18.9682 56.1902C18.5887 55.8788 18.217 55.5582 17.8532 55.2285C17.4894 54.8988 17.134 54.5604 16.7868 54.2132C16.4396 53.8661 16.1012 53.5106 15.7715 53.1467C15.4417 52.783 15.1211 52.4114 14.8097 52.0318C14.4982 51.6522 14.1962 51.2653 13.9038 50.871C13.6113 50.4766 13.3287 50.0753 13.0559 49.6671C12.7832 49.2589 12.5206 48.8441 12.2681 48.423C12.0157 48.002 11.7738 47.575 11.5424 47.142C11.3109 46.709 11.0902 46.2706 10.8803 45.8267C10.6704 45.3829 10.4715 44.9341 10.2836 44.4806C10.0957 44.0269 9.91908 43.5689 9.75368 43.1068C9.58827 42.6445 9.43431 42.1784 9.29179 41.7086C9.14927 41.2387 9.01836 40.7656 8.89906 40.2894C8.77977 39.8131 8.67223 39.3342 8.57644 38.8528C8.48066 38.3712 8.39675 37.8876 8.32471 37.4019C8.25266 36.9163 8.19258 36.4291 8.14446 35.9404C8.09633 35.4519 8.06023 34.9624 8.03614 34.4719C8.01205 33.9816 8 33.491 8 33C8 32.509 8.01205 32.0184 8.03614 31.5281C8.06023 31.0376 8.09633 30.5481 8.14446 30.0596C8.19258 29.5709 8.25266 29.0837 8.32471 28.5981C8.39675 28.1124 8.48066 27.6288 8.57644 27.1472C8.67223 26.6658 8.77977 26.1869 8.89906 25.7106C9.01836 25.2344 9.14927 24.7613 9.29179 24.2915C9.43431 23.8216 9.58827 23.3556 9.75368 22.8933C9.91908 22.431 10.0957 21.9731 10.2836 21.5195C10.4715 21.0659 10.6704 20.6172 10.8803 20.1733C11.0902 19.7295 11.3109 19.2911 11.5424 18.8581C11.7738 18.4251 12.0157 17.998 12.2681 17.5769C12.5206 17.1558 12.7832 16.7411 13.0559 16.3329C13.3287 15.9247 13.6113 15.5234 13.9038 15.129C14.1962 14.7347 14.4982 14.3477 14.8097 13.9682C15.1211 13.5887 15.4417 13.217 15.7715 12.8532C16.1012 12.4894 16.4396 12.134 16.7868 11.7868C17.134 11.4396 17.4894 11.1012 17.8532 10.7715C18.217 10.4417 18.5887 10.1211 18.9682 9.80968C19.3477 9.49821 19.7347 9.19624 20.129 8.90376C20.5234 8.61129 20.9247 8.32868 21.3329 8.05592C21.7411 7.78315 22.1558 7.52056 22.5769 7.26814C22.998 7.01573 23.4251 6.7738 23.8581 6.54236C24.2911 6.31091 24.7295 6.09023 25.1734 5.88032C25.6172 5.67041 26.0659 5.47151 26.5195 5.28362C26.9731 5.09573 27.431 4.91908 27.8933 4.75368C28.3556 4.58827 28.8216 4.43431 29.2915 4.29179C29.7613 4.14927 30.2344 4.01836 30.7106 3.89906C31.1869 3.77977 31.6658 3.67223 32.1472 3.57644C32.6288 3.48066 33.1124 3.39674 33.5981 3.3247C34.0837 3.25266 34.5709 3.19258 35.0596 3.14446C35.5481 3.09633 36.0376 3.06023 36.5281 3.03614C37.0184 3.01205 37.509 3 38 3C38.491 3 38.9816 3.01205 39.4719 3.03614C39.9624 3.06023 40.4519 3.09633 40.9404 3.14446C41.4291 3.19258 41.9163 3.25266 42.4019 3.3247C42.8876 3.39674 43.3712 3.48066 43.8528 3.57644C44.3342 3.67223 44.8131 3.77977 45.2894 3.89906C45.7656 4.01836 46.2387 4.14927 46.7086 4.29179C47.1784 4.43431 47.6445 4.58827 48.1068 4.75368C48.5689 4.91908 49.0269 5.09573 49.4806 5.28362C49.9341 5.47151 50.3829 5.67041 50.8267 5.88032C51.2706 6.09023 51.709 6.31091 52.142 6.54236C52.575 6.7738 53.002 7.01573 53.423 7.26814C53.8441 7.52056 54.2589 7.78315 54.6671 8.05592C55.0753 8.32868 55.4766 8.61129 55.871 8.90376C56.2653 9.19624 56.6522 9.49821 57.0318 9.80968C57.4114 10.1211 57.783 10.4417 58.1467 10.7715C58.5106 11.1012 58.8661 11.4396 59.2132 11.7868C59.5604 12.134 59.8988 12.4894 60.2285 12.8532C60.5582 13.217 60.8788 13.5887 61.1902 13.9682C61.5018 14.3477 61.8038 14.7347 62.0962 15.129C62.3886 15.5234 62.6713 15.9247 62.9441 16.3329C63.2169 16.7411 63.4794 17.1558 63.7319 17.5769C63.9843 17.998 64.2262 18.4251 64.4576 18.8581C64.6891 19.2911 64.9097 19.7295 65.1196 20.1733C65.3296 20.6172 65.5285 21.0659 65.7164 21.5195C65.9042 21.9731 66.0809 22.431 66.2463 22.8933C66.4117 23.3556 66.5657 23.8216 66.7083 24.2915C66.8507 24.7613 66.9816 25.2344 67.1009 25.7106C67.2201 26.1869 67.3277 26.6658 67.4236 27.1472C67.5193 27.6288 67.6032 28.1124 67.6754 28.5981C67.7474 29.0837 67.8074 29.5709 67.8556 30.0596C67.9037 30.5481 67.9398 31.0376 67.9638 31.5281C67.9879 32.0184 68 32.509 68 33Z" fill="white"/>
</mask>
<g mask="url(#mask0_171_1200)">
<g filter="url(#filter1_d_171_1200)">
<path d="M68 33C68 33.491 67.9879 33.9816 67.9638 34.4719C67.9398 34.9624 67.9037 35.4519 67.8556 35.9404C67.8074 36.4291 67.7474 36.9163 67.6754 37.4019C67.6032 37.8876 67.5193 38.3712 67.4236 38.8528C67.3277 39.3342 67.2201 39.8131 67.1009 40.2894C66.9816 40.7656 66.8507 41.2387 66.7083 41.7086C66.5657 42.1784 66.4117 42.6445 66.2463 43.1068C66.0809 43.5689 65.9042 44.0269 65.7164 44.4806C65.5285 44.9341 65.3296 45.3829 65.1196 45.8267C64.9097 46.2706 64.6891 46.709 64.4576 47.142C64.2262 47.575 63.9843 48.002 63.7319 48.423C63.4794 48.8441 63.2169 49.2589 62.9441 49.6671C62.6713 50.0753 62.3886 50.4766 62.0962 50.871C61.8038 51.2653 61.5018 51.6522 61.1902 52.0318C60.8788 52.4114 60.5582 52.783 60.2285 53.1467C59.8988 53.5106 59.5604 53.8661 59.2132 54.2132C58.8661 54.5604 58.5106 54.8988 58.1467 55.2285C57.783 55.5582 57.4114 55.8788 57.0318 56.1902C56.6522 56.5018 56.2653 56.8038 55.871 57.0962C55.4766 57.3886 55.0753 57.6713 54.6671 57.9441C54.2589 58.2169 53.8441 58.4794 53.423 58.7319C53.002 58.9843 52.575 59.2262 52.142 59.4576C51.709 59.6891 51.2706 59.9097 50.8267 60.1196C50.3829 60.3296 49.9341 60.5285 49.4806 60.7164C49.0269 60.9042 48.5689 61.0809 48.1068 61.2463C47.6445 61.4117 47.1784 61.5657 46.7086 61.7083C46.2387 61.8507 45.7656 61.9816 45.2894 62.1009C44.8131 62.2201 44.3342 62.3277 43.8528 62.4236C43.3712 62.5193 42.8876 62.6032 42.4019 62.6754C41.9163 62.7474 41.4291 62.8074 40.9404 62.8556C40.4519 62.9037 39.9624 62.9398 39.4719 62.9638C38.9816 62.9879 38.491 63 38 63C37.509 63 37.0184 62.9879 36.5281 62.9638C36.0376 62.9398 35.5481 62.9037 35.0596 62.8556C34.5709 62.8074 34.0837 62.7474 33.5981 62.6754C33.1124 62.6032 32.6288 62.5193 32.1472 62.4236C31.6658 62.3277 31.1869 62.2201 30.7106 62.1009C30.2344 61.9816 29.7613 61.8507 29.2915 61.7083C28.8216 61.5657 28.3556 61.4117 27.8933 61.2463C27.431 61.0809 26.9731 60.9042 26.5195 60.7164C26.0659 60.5285 25.6172 60.3296 25.1734 60.1196C24.7295 59.9097 24.2911 59.6891 23.8581 59.4576C23.4251 59.2262 22.998 58.9843 22.5769 58.7319C22.1558 58.4794 21.7411 58.2169 21.3329 57.9441C20.9247 57.6713 20.5234 57.3886 20.129 57.0962C19.7347 56.8038 19.3477 56.5018 18.9682 56.1902C18.5887 55.8788 18.217 55.5582 17.8532 55.2285C17.4894 54.8988 17.134 54.5604 16.7868 54.2132C16.4396 53.8661 16.1012 53.5106 15.7715 53.1467C15.4417 52.783 15.1211 52.4114 14.8097 52.0318C14.4982 51.6522 14.1962 51.2653 13.9038 50.871C13.6113 50.4766 13.3287 50.0753 13.0559 49.6671C12.7832 49.2589 12.5206 48.8441 12.2681 48.423C12.0157 48.002 11.7738 47.575 11.5424 47.142C11.3109 46.709 11.0902 46.2706 10.8803 45.8267C10.6704 45.3829 10.4715 44.9341 10.2836 44.4806C10.0957 44.0269 9.91908 43.5689 9.75368 43.1068C9.58827 42.6445 9.43431 42.1784 9.29179 41.7086C9.14927 41.2387 9.01836 40.7656 8.89906 40.2894C8.77977 39.8131 8.67223 39.3342 8.57644 38.8528C8.48066 38.3712 8.39675 37.8876 8.32471 37.4019C8.25266 36.9163 8.19258 36.4291 8.14446 35.9404C8.09633 35.4519 8.06023 34.9624 8.03614 34.4719C8.01205 33.9816 8 33.491 8 33C8 32.509 8.01205 32.0184 8.03614 31.5281C8.06023 31.0376 8.09633 30.5481 8.14446 30.0596C8.19258 29.5709 8.25266 29.0837 8.32471 28.5981C8.39675 28.1124 8.48066 27.6288 8.57644 27.1472C8.67223 26.6658 8.77977 26.1869 8.89906 25.7106C9.01836 25.2344 9.14927 24.7613 9.29179 24.2915C9.43431 23.8216 9.58827 23.3556 9.75368 22.8933C9.91908 22.431 10.0957 21.9731 10.2836 21.5195C10.4715 21.0659 10.6704 20.6172 10.8803 20.1733C11.0902 19.7295 11.3109 19.2911 11.5424 18.8581C11.7738 18.4251 12.0157 17.998 12.2681 17.5769C12.5206 17.1558 12.7832 16.7411 13.0559 16.3329C13.3287 15.9247 13.6113 15.5234 13.9038 15.129C14.1962 14.7347 14.4982 14.3477 14.8097 13.9682C15.1211 13.5887 15.4417 13.217 15.7715 12.8532C16.1012 12.4894 16.4396 12.134 16.7868 11.7868C17.134 11.4396 17.4894 11.1012 17.8532 10.7715C18.217 10.4417 18.5887 10.1211 18.9682 9.80968C19.3477 9.49821 19.7347 9.19624 20.129 8.90376C20.5234 8.61129 20.9247 8.32868 21.3329 8.05592C21.7411 7.78315 22.1558 7.52056 22.5769 7.26814C22.998 7.01573 23.4251 6.7738 23.8581 6.54236C24.2911 6.31091 24.7295 6.09023 25.1734 5.88032C25.6172 5.67041 26.0659 5.47151 26.5195 5.28362C26.9731 5.09573 27.431 4.91908 27.8933 4.75368C28.3556 4.58827 28.8216 4.43431 29.2915 4.29179C29.7613 4.14927 30.2344 4.01836 30.7106 3.89906C31.1869 3.77977 31.6658 3.67223 32.1472 3.57644C32.6288 3.48066 33.1124 3.39674 33.5981 3.3247C34.0837 3.25266 34.5709 3.19258 35.0596 3.14446C35.5481 3.09633 36.0376 3.06023 36.5281 3.03614C37.0184 3.01205 37.509 3 38 3C38.491 3 38.9816 3.01205 39.4719 3.03614C39.9624 3.06023 40.4519 3.09633 40.9404 3.14446C41.4291 3.19258 41.9163 3.25266 42.4019 3.3247C42.8876 3.39674 43.3712 3.48066 43.8528 3.57644C44.3342 3.67223 44.8131 3.77977 45.2894 3.89906C45.7656 4.01836 46.2387 4.14927 46.7086 4.29179C47.1784 4.43431 47.6445 4.58827 48.1068 4.75368C48.5689 4.91908 49.0269 5.09573 49.4806 5.28362C49.9341 5.47151 50.3829 5.67041 50.8267 5.88032C51.2706 6.09023 51.709 6.31091 52.142 6.54236C52.575 6.7738 53.002 7.01573 53.423 7.26814C53.8441 7.52056 54.2589 7.78315 54.6671 8.05592C55.0753 8.32868 55.4766 8.61129 55.871 8.90376C56.2653 9.19624 56.6522 9.49821 57.0318 9.80968C57.4114 10.1211 57.783 10.4417 58.1467 10.7715C58.5106 11.1012 58.8661 11.4396 59.2132 11.7868C59.5604 12.134 59.8988 12.4894 60.2285 12.8532C60.5582 13.217 60.8788 13.5887 61.1902 13.9682C61.5018 14.3477 61.8038 14.7347 62.0962 15.129C62.3886 15.5234 62.6713 15.9247 62.9441 16.3329C63.2169 16.7411 63.4794 17.1558 63.7319 17.5769C63.9843 17.998 64.2262 18.4251 64.4576 18.8581C64.6891 19.2911 64.9097 19.7295 65.1196 20.1733C65.3296 20.6172 65.5285 21.0659 65.7164 21.5195C65.9042 21.9731 66.0809 22.431 66.2463 22.8933C66.4117 23.3556 66.5657 23.8216 66.7083 24.2915C66.8507 24.7613 66.9816 25.2344 67.1009 25.7106C67.2201 26.1869 67.3277 26.6658 67.4236 27.1472C67.5193 27.6288 67.6032 28.1124 67.6754 28.5981C67.7474 29.0837 67.8074 29.5709 67.8556 30.0596C67.9037 30.5481 67.9398 31.0376 67.9638 31.5281C67.9879 32.0184 68 32.509 68 33Z" fill="#1F1F1F"/>
<path d="M38 21C38.3536 21 38.6928 21.1405 38.9428 21.3905C39.1929 21.6406 39.3333 21.9797 39.3333 22.3333V31.6667H48.6667C49.0203 31.6667 49.3594 31.8071 49.6095 32.0572C49.8595 32.3072 50 32.6464 50 33C50 33.3536 49.8595 33.6928 49.6095 33.9428C49.3594 34.1929 49.0203 34.3333 48.6667 34.3333H39.3333V43.6667C39.3333 44.0203 39.1929 44.3594 38.9428 44.6095C38.6928 44.8595 38.3536 45 38 45C37.6464 45 37.3072 44.8595 37.0572 44.6095C36.8071 44.3594 36.6667 44.0203 36.6667 43.6667V34.3333H27.3333C26.9797 34.3333 26.6406 34.1929 26.3905 33.9428C26.1405 33.6928 26 33.3536 26 33C26 32.6464 26.1405 32.3072 26.3905 32.0572C26.6406 31.8071 26.9797 31.6667 27.3333 31.6667H36.6667V22.3333C36.6667 21.9797 36.8071 21.6406 37.0572 21.3905C37.3072 21.1405 37.6464 21 38 21Z" fill="white"/>
</g>
</g>
</g>
<defs>
<filter id="filter0_d_171_1200" x="0" y="0" width="76" height="76" filterUnits="userSpaceOnUse" color-interpolation-filters="sRGB">
<feFlood flood-opacity="0" result="BackgroundImageFix"/>
<feColorMatrix in="SourceAlpha" type="matrix" values="0 0 0 0 0 0 0 0 0 0 0 0 0 0 0 0 0 0 127 0" result="hardAlpha"/>
<feOffset dy="5"/>
<feGaussianBlur stdDeviation="4"/>
<feColorMatrix type="matrix" values="0 0 0 0 0.188235 0 0 0 0 0.203922 0 0 0 0 0.541176 0 0 0 0.06 0"/>
<feBlend mode="normal" in2="BackgroundImageFix" result="effect1_dropShadow_171_1200"/>
<feBlend mode="normal" in="SourceGraphic" in2="effect1_dropShadow_171_1200" result="shape"/>
</filter>
<filter id="filter1_d_171_1200" x="0" y="0" width="76" height="76" filterUnits="userSpaceOnUse" color-interpolation-filters="sRGB">
<feFlood flood-opacity="0" result="BackgroundImageFix"/>
<feColorMatrix in="SourceAlpha" type="matrix" values="0 0 0 0 0 0 0 0 0 0 0 0 0 0 0 0 0 0 127 0" result="hardAlpha"/>
<feOffset dy="5"/>
<feGaussianBlur stdDeviation="4"/>
<feColorMatrix type="matrix" values="0 0 0 0 0.188235 0 0 0 0 0.203922 0 0 0 0 0.541176 0 0 0 0.06 0"/>
<feBlend mode="normal" in2="BackgroundImageFix" result="effect1_dropShadow_171_1200"/>
<feBlend mode="normal" in="SourceGraphic" in2="effect1_dropShadow_171_1200" result="shape"/>
</filter>
</defs>
</svg>
