<svg width="497" height="202" viewBox="0 0 497 202" fill="none" xmlns="http://www.w3.org/2000/svg">
<path d="M424.72 57.768C386.301 57.9795 354.577 88.7911 353.373 127.12C353.007 138.666 355.405 149.616 359.924 159.384C348.585 170.545 338.479 166.93 333.691 160.749C329.491 155.317 327.42 148.539 327.42 141.675V53.2881C327.42 43.1458 324.809 33.1188 319.559 24.4281C312.304 12.4111 298.519 0 272.498 0C244.108 0 230.746 15.2279 224.494 28.562C220.833 36.3682 219.06 44.9243 219.06 53.538V66.6606L199.639 66.7856L199.764 92.5884H219.06V145.175C219.06 148.876 219.06 165.911 201.248 165.911C183.435 165.911 183.435 144.434 183.435 144.434V101.481C183.435 84.3784 172.299 57.047 128.514 57.047C109.352 57.047 97.0212 65.132 89.1987 74.2169C80.9234 83.8401 76.5593 96.2224 76.5593 108.903V150.366C76.5593 158.509 69.8832 169.622 57.2631 169.622C51.8972 169.622 48.0148 166.815 45.3174 163.585C41.936 159.537 40.1923 154.375 40.1923 149.097V67.4104C40.1923 67.4104 5.31848 75.5435 2.35132 76.2838V146.646C2.35132 155.529 6.80206 201.039 60.2399 201.039C113.678 201.039 112.194 147.395 112.194 147.395V109.624C112.194 102.961 116.645 89.6274 128.523 89.6274C133.225 89.6274 135.787 90.4254 137.579 91.6367C142.704 95.1168 145.594 101.048 145.594 107.23V142.502C145.594 152.298 147.665 162.018 151.933 170.843C170.68 209.615 213.868 199.972 213.868 199.972C256.169 187.378 255.427 148.866 255.427 148.866V92.5788H274.107V66.7086H256.911V51.8461C256.911 51.8461 255.427 32.9554 272.122 32.9554C288.818 32.9554 289.559 50.3559 289.559 50.3559C289.559 50.3559 288.818 131.821 289.559 147.376C290.301 162.931 303.663 199.963 338.547 199.963C368.575 199.963 378.796 188.993 381.06 185.936C393.67 195.733 409.643 201.443 426.964 201.001C463.794 200.068 495.633 168.555 496.847 131.812C498.195 91.0118 465.335 57.5373 424.7 57.7584L424.72 57.768ZM425.124 165.219C405.298 165.219 389.229 149.184 389.229 129.399C389.229 109.614 405.298 93.5786 425.124 93.5786C444.95 93.5786 461.019 109.614 461.019 129.399C461.019 149.184 444.95 165.219 425.124 165.219Z" fill="#FFFBFB"/>
<path d="M21.898 57.9416C33.9224 57.9416 43.6701 48.2142 43.6701 36.2149C43.6701 24.2155 33.9224 14.4882 21.898 14.4882C9.87366 14.4882 0.125977 24.2155 0.125977 36.2149C0.125977 48.2142 9.87366 57.9416 21.898 57.9416Z" fill="url(#paint0_linear_124_410)"/>
<path d="M444.565 125.256C447.744 127.111 447.744 131.687 444.565 133.542L430.49 141.733L416.348 149.799C413.149 151.626 409.171 149.328 409.151 145.656L409.084 129.399L409.151 113.142C409.171 109.47 413.149 107.172 416.348 108.999L430.49 117.065L444.565 125.256Z" fill="url(#paint1_linear_124_410)"/>
<defs>
<linearGradient id="paint0_linear_124_410" x1="24.9461" y1="15.0313" x2="24.8908" y2="57.942" gradientUnits="userSpaceOnUse">
<stop stop-color="#71BF8A"/>
<stop offset="1" stop-color="#2E98D3"/>
</linearGradient>
<linearGradient id="paint1_linear_124_410" x1="430.667" y1="108.885" x2="430.607" y2="150.44" gradientUnits="userSpaceOnUse">
<stop stop-color="#71BF8A"/>
<stop offset="1" stop-color="#2E98D3"/>
</linearGradient>
</defs>
</svg>
