<svg width="42" height="32" viewBox="0 0 42 32" fill="none" xmlns="http://www.w3.org/2000/svg">
<path d="M24.8914 6.27472C24.0629 6.27472 23.3914 6.94629 23.3914 7.77472C23.3914 8.60315 24.0629 9.27472 24.8914 9.27472H34.2949C35.1233 9.27472 35.7949 8.60315 35.7949 7.77472C35.7949 6.94629 35.1233 6.27472 34.2949 6.27472H24.8914Z" fill="#9698A3"/>
<path fill-rule="evenodd" clip-rule="evenodd" d="M0.806641 6.19141C0.806641 3.15384 3.26907 0.691406 6.30664 0.691406H35.6934C38.7309 0.691406 41.1934 3.15384 41.1934 6.19141V25.8082C41.1934 28.8458 38.7309 31.3082 35.6934 31.3082H6.30664C3.26907 31.3082 0.806641 28.8458 0.806641 25.8082V6.19141ZM6.30664 3.69141C4.92593 3.69141 3.80664 4.8107 3.80664 6.19141V20.4206L38.1934 20.4206V6.19141C38.1934 4.81069 37.0741 3.69141 35.6934 3.69141H6.30664ZM3.80664 23.4206L38.1934 23.4206V25.8082C38.1934 27.1889 37.0741 28.3082 35.6934 28.3082H6.30664C4.92593 28.3082 3.80664 27.1889 3.80664 25.8082V23.4206Z" fill="#9698A3"/>
</svg>
