<svg width="44" height="44" viewBox="0 0 44 44" fill="none" xmlns="http://www.w3.org/2000/svg">
<g opacity="0.8">
<path d="M36.6665 31.167H40.3332V34.8337H3.6665V31.167H7.33317V18.3337C7.33317 14.4438 8.8784 10.7133 11.6289 7.96276C14.3795 5.21223 18.11 3.66699 21.9998 3.66699C25.8897 3.66699 29.6202 5.21223 32.3707 7.96276C35.1213 10.7133 36.6665 14.4438 36.6665 18.3337V31.167ZM32.9998 31.167V18.3337C32.9998 15.4163 31.8409 12.6184 29.778 10.5555C27.7151 8.49258 24.9172 7.33366 21.9998 7.33366C19.0825 7.33366 16.2846 8.49258 14.2217 10.5555C12.1588 12.6184 10.9998 15.4163 10.9998 18.3337V31.167H32.9998ZM16.4998 38.5003H27.4998V42.167H16.4998V38.5003Z" fill="#9698A3"/>
</g>
</svg>
