<svg width="38" height="36" viewBox="0 0 38 36" fill="none" xmlns="http://www.w3.org/2000/svg">
<path fill-rule="evenodd" clip-rule="evenodd" d="M18.9995 0.125C16.6949 0.125 14.4847 1.04049 12.8551 2.67008C11.2256 4.29967 10.3101 6.50986 10.3101 8.81445C10.3101 11.119 11.2256 13.3292 12.8551 14.9588C14.4847 16.5884 16.6949 17.5039 18.9995 17.5039C21.3041 17.5039 23.5143 16.5884 25.1439 14.9588C26.7735 13.3292 27.689 11.119 27.689 8.81445C27.689 6.50986 26.7735 4.29967 25.1439 2.67008C23.5143 1.04049 21.3041 0.125 18.9995 0.125ZM14.9765 4.7914C16.0434 3.72442 17.4906 3.125 18.9995 3.125C20.5084 3.125 21.9556 3.72442 23.0226 4.7914C24.0895 5.85838 24.689 7.30551 24.689 8.81445C24.689 10.3234 24.0895 11.7705 23.0226 12.8375C21.9556 13.9045 20.5084 14.5039 18.9995 14.5039C17.4906 14.5039 16.0434 13.9045 14.9765 12.8375C13.9095 11.7705 13.3101 10.3234 13.3101 8.81445C13.3101 7.30551 13.9095 5.85838 14.9765 4.7914Z" fill="#9698A3"/>
<path fill-rule="evenodd" clip-rule="evenodd" d="M18.9998 20.1761C16.0276 20.1761 11.6474 20.8046 7.9723 22.0696C6.13795 22.701 4.37939 23.5243 3.05042 24.5811C1.72554 25.6347 0.641113 27.0805 0.641113 28.9323V30.3744C0.641113 33.4119 3.10355 35.8744 6.14111 35.8744H31.8585C34.8961 35.8744 37.3585 33.4119 37.3585 30.3744V28.9323C37.3585 27.0805 36.2741 25.6347 34.9492 24.5811C33.6202 23.5243 31.8617 22.701 30.0273 22.0696C26.3522 20.8046 21.972 20.1761 18.9998 20.1761ZM3.64111 28.9323C3.64111 28.3623 3.9607 27.6902 4.91767 26.9292C5.87055 26.1714 7.27168 25.4835 8.94868 24.9062C12.2963 23.754 16.3455 23.1761 18.9998 23.1761C21.6542 23.1761 25.7033 23.754 29.0509 24.9062C30.7279 25.4835 32.1291 26.1714 33.0819 26.9292C34.0389 27.6902 34.3585 28.3623 34.3585 28.9323V30.3744C34.3585 31.7551 33.2392 32.8744 31.8585 32.8744H6.14111C4.7604 32.8744 3.64111 31.7551 3.64111 30.3744V28.9323Z" fill="#9698A3"/>
</svg>
