<svg width="36" height="40" viewBox="0 0 36 40" fill="none" xmlns="http://www.w3.org/2000/svg">
<path d="M35.3344 11.1718C35.3319 10.7421 35.2166 10.3205 35 9.9492C34.7835 9.57795 34.4732 9.27005 34.1004 9.05629L18.8507 0.327039C18.478 0.112765 18.0556 0 17.6257 0C17.1958 0 16.7734 0.112765 16.4007 0.327039L1.21852 9.16778C0.847024 9.38438 0.538934 9.69476 0.325088 10.0679C0.111241 10.4409 -0.000859436 10.8637 4.96134e-06 11.2937L0.0648197 28.8663C0.0668257 29.2959 0.181636 29.7174 0.397758 30.0887C0.61388 30.46 0.923733 30.768 1.2963 30.9818L16.4785 39.6748C16.8502 39.8879 17.2712 40 17.6996 40C18.1281 40 18.549 39.8879 18.9207 39.6748L34.1678 30.86C34.5417 30.6441 34.8519 30.3334 35.0673 29.9592C35.2826 29.585 35.3953 29.1606 35.3941 28.7289L35.3293 11.1589L35.3344 11.1718ZM17.6374 2.90148L30.4941 10.2618L24.513 14.047L18.9156 10.8426C18.5358 10.6242 18.1053 10.5093 17.6672 10.5093C17.2291 10.5093 16.7987 10.6242 16.4189 10.8426L10.7904 14.1196L4.82741 10.35L17.6374 2.90148ZM17.6996 26.6055L12.6648 23.7252L17.43 20.78L22.12 24.0544L17.6996 26.6055ZM11.9674 16.7278L16.3748 14.1663V18.5737C16.3799 18.6103 16.3868 18.6467 16.3956 18.6826C16.3333 18.6998 16.2725 18.7224 16.2141 18.75L11.9907 21.3607L11.9674 16.7278ZM18.7315 18.5789V14.0056L23.4137 16.6863L23.4344 22.0841L18.6926 18.7733C18.7106 18.7131 18.7236 18.6516 18.7315 18.5893V18.5789ZM2.84667 12.4474L9.14148 16.4296C9.14148 16.4685 9.12593 16.5048 9.12593 16.5411L9.15185 23.5411C9.154 23.9797 9.27128 24.41 9.49194 24.789C9.71261 25.168 10.0289 25.4824 10.4093 25.7007L16.2815 29.0711V36.2966L2.9063 28.6381L2.84667 12.4474ZM19.1204 36.2992V29.0607L25.0263 25.6515C25.4071 25.431 25.7231 25.1141 25.9424 24.7327C26.1618 24.3513 26.2768 23.9189 26.2759 23.4789L26.25 16.4789C26.25 16.4244 26.2318 16.3726 26.2293 16.3181L32.5007 12.3489L32.5604 28.5241L19.1204 36.2992Z" fill="#9698A3"/>
</svg>
