<svg width="44" height="44" viewBox="0 0 44 44" fill="none" xmlns="http://www.w3.org/2000/svg">
<path d="M12.8272 28.971C11.9988 28.971 11.3272 29.6426 11.3272 30.471C11.3272 31.2995 11.9988 31.971 12.8272 31.971H31.173C32.0015 31.971 32.673 31.2995 32.673 30.471C32.673 29.6426 32.0015 28.971 31.173 28.971H12.8272Z" fill="#9698A3"/>
<path fill-rule="evenodd" clip-rule="evenodd" d="M14.1835 4.52433C14.7693 3.93855 15.7191 3.93854 16.3048 4.52433L21.9688 10.1883L27.6327 4.52433C28.2185 3.93854 29.1683 3.93855 29.7541 4.52433C30.3398 5.11012 30.3398 6.05987 29.7541 6.64565L25.671 10.7287H34.4396C37.4771 10.7287 39.9396 13.1912 39.9396 16.2287V34.416C39.9396 37.4536 37.4771 39.916 34.4396 39.916H9.49809C6.46052 39.916 3.99809 37.4536 3.99809 34.416V16.2287C3.99809 13.1912 6.46052 10.7287 9.49809 10.7287H18.2666L14.1835 6.64565C13.5977 6.05987 13.5977 5.11012 14.1835 4.52433ZM6.99809 16.2287C6.99809 14.848 8.11738 13.7287 9.49809 13.7287H34.4396C35.8203 13.7287 36.9396 14.848 36.9396 16.2287V34.416C36.9396 35.7967 35.8203 36.916 34.4396 36.916H9.49809C8.11737 36.916 6.99809 35.7967 6.99809 34.416V16.2287Z" fill="#9698A3"/>
</svg>
