<svg width="44" height="44" viewBox="0 0 44 44" fill="none" xmlns="http://www.w3.org/2000/svg">
<path d="M18.131 14.2947C18.9594 14.2991 19.6345 13.6311 19.6389 12.8027C19.6433 11.9743 18.9753 11.2992 18.1469 11.2948C16.3453 11.2852 14.5357 11.9689 13.1595 13.3451C11.6273 14.8773 10.9545 16.9449 11.1389 18.942C11.2151 19.767 11.9456 20.3739 12.7705 20.2977C13.5954 20.2215 14.2024 19.4911 14.1262 18.6661C14.0202 17.5191 14.4058 16.3414 15.2808 15.4664C16.0677 14.6796 17.0977 14.2893 18.131 14.2947Z" fill="#9698A3"/>
<path fill-rule="evenodd" clip-rule="evenodd" d="M30.7692 8.83961C24.7135 2.78393 14.8953 2.78393 8.83961 8.83961C2.78393 14.8953 2.78393 24.7135 8.83961 30.7692C14.5375 36.467 23.5664 36.8037 29.6579 31.7792L37.1419 39.2632C37.7277 39.849 38.6774 39.849 39.2632 39.2632C39.849 38.6774 39.849 37.7277 39.2632 37.1419L31.7792 29.6579C36.8037 23.5664 36.467 14.5375 30.7692 8.83961ZM10.9609 10.9609C15.845 6.07682 23.7637 6.07682 28.6478 10.9609C33.5319 15.845 33.532 23.7637 28.6478 28.6478C23.7637 33.532 15.845 33.532 10.9609 28.6478C6.07682 23.7637 6.07683 15.845 10.9609 10.9609Z" fill="#9698A3"/>
</svg>
