<svg width="30" height="38" viewBox="0 0 30 38" fill="none" xmlns="http://www.w3.org/2000/svg">
<path d="M11.2001 37.3336C11.2001 37.3336 -5.06662 33.7586 2.20006 16.0086C2.20006 16.0086 3.86674 17.9836 3.62506 18.9336C3.62506 18.9336 4.91674 14.4503 7.70838 11.7753C10.1084 9.46699 12.5417 3.00031 10.3001 0.666992C10.3001 0.666992 21.4251 3.00031 22.6667 14.692C22.6667 14.692 24.0917 10.967 27.0084 10.6003C26.4476 12.2598 26.4476 14.0575 27.0084 15.717C27.0084 15.717 36.2251 31.492 20.3417 36.8253C20.3417 36.8253 25.1001 31.417 15.0084 22.142C15.0084 22.142 12.6251 27.142 11.2084 28.8586C11.2001 28.8586 7.22506 33.317 11.2001 37.3336Z" fill="#FF3939"/>
</svg>
