<svg width="19" height="19" viewBox="0 0 19 19" fill="none" xmlns="http://www.w3.org/2000/svg">
<path d="M8.61827 1.31692C8.98509 0.573691 10.0449 0.57369 10.4117 1.31692L12.5316 5.61204C12.6771 5.90692 12.9583 6.1114 13.2837 6.15896L18.0261 6.85211C18.8461 6.97196 19.1728 7.97983 18.5792 8.55798L15.1489 11.8989C14.913 12.1287 14.8053 12.4599 14.861 12.7845L15.6711 17.5026C15.8113 18.3196 14.9539 18.9427 14.2202 18.557L9.97942 16.3277C9.68805 16.1745 9.33996 16.1745 9.04862 16.3278L4.81076 18.5566C4.07712 18.9424 3.21952 18.3194 3.35968 17.5025L4.16906 12.7844C4.22474 12.4599 4.11707 12.1287 3.88117 11.899L0.450779 8.55798C-0.142842 7.97982 0.183939 6.97196 1.00387 6.85211L5.74633 6.15896C6.0717 6.1114 6.3529 5.90692 6.49844 5.61204L8.61827 1.31692Z" fill="white"/>
</svg>
